<?xml version="1.0" encoding="UTF-8"?>
<svg width="29px" height="29px" viewBox="0 0 29 29" version="1.1" xmlns="http://www.w3.org/2000/svg" xmlns:xlink="http://www.w3.org/1999/xlink">
    <title>6F5E3F8C-A7F1-4BD7-9AEB-BE0CDC6AC88F</title>
    <g id="Symbols" stroke="none" stroke-width="1" fill="none" fill-rule="evenodd">
        <g id="shop-(1)" fill="#000000" fill-rule="nonzero">
            <g id="Shape">
                <path d="M28.9472028,6.92273376 L26.8757915,0.70845239 C26.7348776,0.28528653 26.3388984,0 25.8929135,0 L3.10714719,0 C2.66116233,0 2.26518313,0.28528653 2.12426915,0.70845239 L0.0527972277,6.92273376 C0.0208761452,7.01946779 0.00303432343,7.1202678 0,7.2220388 C0,7.23241616 0,7.23963784 0,7.2500152 L0,8.28574899 C0.00376256105,9.90850176 0.771142956,11.4348846 2.07141123,12.4058054 C2.07141123,12.4141194 2.07141123,12.4203094 2.07141123,12.4285628 L2.07141123,25.8928593 C2.07141123,27.608887 3.46252715,29 5.17855842,29 L23.8214416,29 C25.5374728,29 26.9285888,27.608887 26.9285888,25.8928593 L26.9285888,12.4285628 C26.9285888,12.4202488 26.9285888,12.4140587 26.9285888,12.4058054 C28.228857,11.4348846 28.9962981,9.90850176 29,8.28574899 L29,7.2500152 C29,7.23963784 29,7.23241616 29,7.2220388 C28.9969657,7.12020712 28.9791845,7.0194071 28.9472028,6.92273376 Z M21.7500303,2.07140693 L25.1461665,2.07140693 L26.5278153,6.21428141 L21.7500303,6.21428141 L21.7500303,2.07140693 Z M15.535736,2.07140693 L19.6786191,2.07140693 L19.6786191,6.21428141 L15.535736,6.21428141 L15.535736,2.07140693 Z M9.32144158,2.07140693 L13.4643247,2.07140693 L13.4643247,6.21428141 L9.32144158,6.21428141 L9.32144158,2.07140693 Z M3.85389419,2.07140693 L7.25003034,2.07140693 L7.25003034,6.21428141 L2.47224536,6.21428141 L3.85389419,2.07140693 Z M16.5714719,26.9285324 L12.4285888,26.9285324 L12.4285888,18.6428442 L16.5714719,18.6428442 L16.5714719,26.9285324 Z M24.8571775,25.8928593 C24.8571775,26.4648888 24.3934722,26.9285931 23.8214416,26.9285931 L18.6428832,26.9285931 L18.6428832,17.607171 C18.6428832,17.0351416 18.1791778,16.5714373 17.6071472,16.5714373 L11.3928528,16.5714373 C10.8208222,16.5714373 10.3571168,17.0351416 10.3571168,17.607171 L10.3571168,26.9285931 L5.17855842,26.9285931 C4.60652777,26.9285931 4.14282246,26.4648888 4.14282246,25.8928593 L4.14282246,13.360705 C5.59632407,13.6590997 7.10778126,13.3122166 8.28570562,12.4099321 C10.1345796,13.7678497 12.651126,13.7678497 14.5,12.4099321 C16.348874,13.7678497 18.8654204,13.7678497 20.7142944,12.4099321 C21.8922187,13.3122773 23.4036759,13.6590997 24.8571775,13.360705 L24.8571775,25.8928593 L24.8571775,25.8928593 Z M23.8214416,11.392829 C22.92577,11.3922828 22.0752491,10.9993994 21.4941762,10.3177705 C21.1177987,9.88707948 20.4634772,9.8430212 20.0327853,10.2193979 C19.9978299,10.2499231 19.9649379,10.2828151 19.9344126,10.3177705 C18.7827655,11.6031072 16.8072995,11.7114323 15.5219601,10.5598483 C15.4369384,10.4836262 15.356104,10.4028527 15.2798818,10.3177705 C14.8745569,9.88707948 14.1968104,9.86644613 13.7660578,10.2718309 C13.7502794,10.286699 13.7349257,10.301992 13.7201182,10.3177705 C12.5685318,11.6031072 10.5930052,11.7114323 9.30766575,10.5598483 C9.22258332,10.4836262 9.14180963,10.4028527 9.06558742,10.3177705 C8.6602625,9.88707948 7.98245533,9.86644613 7.55176347,10.2718309 C7.53598498,10.286699 7.52063131,10.301992 7.50582381,10.3177705 C6.92475087,10.9993994 6.0742907,11.3922828 5.17855842,11.392829 C3.46252715,11.392829 2.07141123,10.001716 2.07141123,8.2856883 L26.9285888,8.2856883 C26.9285888,10.001716 25.5374728,11.392829 23.8214416,11.392829 Z"></path>
            </g>
        </g>
    </g>
</svg>