<?xml version="1.0" encoding="UTF-8"?>
<svg width="29px" height="19px" viewBox="0 0 29 19" version="1.1" xmlns="http://www.w3.org/2000/svg" xmlns:xlink="http://www.w3.org/1999/xlink">
    <title>5F5852D0-0663-4062-BD23-30110934DFBB</title>
    <g id="Symbols" stroke="none" stroke-width="1" fill="none" fill-rule="evenodd">
        <g id="video" transform="translate(0.000000, -5.000000)" fill="#000000" fill-rule="nonzero">
            <g id="video-(2)" transform="translate(0.000000, 5.000000)">
                <path d="M28.5011151,2.24537657 C28.195887,2.05663389 27.8146402,2.03940377 27.4936381,2.19981381 L20.7084874,5.59287448 L20.7084874,3.12647908 C20.7084874,1.41092887 19.3177615,0.0202029289 17.6022113,0.0202029289 L3.10627615,0.0202029289 C1.39072594,0.0202029289 0,1.41092887 0,3.12647908 L0,15.5515837 C0,17.2671339 1.39072594,18.6578598 3.10627615,18.6578598 L17.6022113,18.6578598 C19.3177615,18.6578598 20.7084874,17.2671339 20.7084874,15.5515837 L20.7084874,13.0851883 L27.4936381,16.4834665 C28.0052029,16.7390669 28.6270649,16.5316381 28.8827259,16.0200732 C28.9554079,15.8746485 28.992841,15.7141172 28.9919472,15.5515837 L28.9919472,3.12647908 C28.9919472,2.76755858 28.8064038,2.43417992 28.5011151,2.24537657 Z M18.6376569,15.5515837 C18.6376569,16.123454 18.1740816,16.5870293 17.6022113,16.5870293 L3.10627615,16.5870293 C2.53440586,16.5870293 2.07083054,16.123454 2.07083054,15.5515837 L2.07083054,3.12647908 C2.07083054,2.55460879 2.53440586,2.09103347 3.10627615,2.09103347 L17.6022113,2.09103347 C18.1740816,2.09103347 18.6376569,2.55460879 18.6376569,3.12647908 L18.6376569,15.5515837 Z M26.9210397,13.876318 L20.7084874,10.7700418 L20.7084874,7.90814226 L26.9210397,4.80186611 L26.9210397,13.876318 L26.9210397,13.876318 Z" id="Shape"></path>
                <path d="M10.3542741,5.19737029 C8.06685356,5.19737029 6.2125523,7.05167155 6.2125523,9.33909205 C6.2125523,11.6265126 8.06685356,13.4808138 10.3542741,13.4808138 C12.6416946,13.4808138 14.4959958,11.6265126 14.4959958,9.33909205 C14.4959958,7.05167155 12.6416339,5.19737029 10.3542741,5.19737029 Z M10.3542741,11.4099226 C9.21059414,11.4099226 8.28344351,10.482772 8.28344351,9.33909205 C8.28344351,8.19541213 9.21059414,7.26826151 10.3542741,7.26826151 C11.497954,7.26826151 12.4251046,8.19541213 12.4251046,9.33909205 C12.4251046,10.482772 11.497954,11.4099226 10.3542741,11.4099226 Z" id="Shape"></path>
            </g>
        </g>
    </g>
</svg>